REM DIRINDEX 1\2,1\3,1\4,1\5
REM DIRNAME "folder01","folder02","folder03","folder04","folder05"
TITLE ""
FILE "P1Q_t_0940-0949.mp3" MP3
  TRACK 01 AUDIO
    TITLE "3:cjc173_3771"
    INDEX 01 00:00:00
  TRACK 02 AUDIO
    TITLE "0:"
    INDEX 01 00:01:18
  TRACK 03 AUDIO
    TITLE "4:cjc173_3772"
    INDEX 01 00:01:39
  TRACK 04 AUDIO
    TITLE "0:"
    INDEX 01 00:04:30
  TRACK 05 AUDIO
    TITLE "5:cjc173_3773"
    INDEX 01 00:04:49
  TRACK 06 AUDIO
    TITLE "0:"
    INDEX 01 00:08:73
  TRACK 07 AUDIO
    TITLE "3:cjc173_3774"
    INDEX 01 00:09:43
  TRACK 08 AUDIO
    TITLE "0:"
    INDEX 01 00:10:50
  TRACK 09 AUDIO
    TITLE "4:cjc173_3775"
    INDEX 01 00:10:73
  TRACK 10 AUDIO
    TITLE "0:"
    INDEX 01 00:15:61
  TRACK 11 AUDIO
    TITLE "5:cjc173_3776"
    INDEX 01 00:16:05
  TRACK 12 AUDIO
    TITLE "0:"
    INDEX 01 00:19:68
  TRACK 13 AUDIO
    TITLE "3:cjc173_3777"
    INDEX 01 00:20:40
  TRACK 14 AUDIO
    TITLE "0:"
    INDEX 01 00:21:46
  TRACK 15 AUDIO
    TITLE "4:cjc173_3778"
    INDEX 01 00:21:67
  TRACK 16 AUDIO
    TITLE "0:"
    INDEX 01 00:27:74
  TRACK 17 AUDIO
    TITLE "5:cjc173_3779"
    INDEX 01 00:28:18
  TRACK 18 AUDIO
    TITLE "0:"
    INDEX 01 00:34:43
  TRACK 19 AUDIO
    TITLE "3:cjc173_3780"
    INDEX 01 00:35:13
  TRACK 20 AUDIO
    TITLE "0:"
    INDEX 01 00:36:34
  TRACK 21 AUDIO
    TITLE "4:cjc173_3781"
    INDEX 01 00:36:57
  TRACK 22 AUDIO
    TITLE "0:"
    INDEX 01 00:39:16
  TRACK 23 AUDIO
    TITLE "5:cjc173_3782"
    INDEX 01 00:39:40
  TRACK 24 AUDIO
    TITLE "0:"
    INDEX 01 00:44:49
  TRACK 25 AUDIO
    TITLE "3:cjc173_3783"
    INDEX 01 00:45:19
  TRACK 26 AUDIO
    TITLE "0:"
    INDEX 01 00:46:48
  TRACK 27 AUDIO
    TITLE "4:cjc173_3784"
    INDEX 01 00:46:69
  TRACK 28 AUDIO
    TITLE "0:"
    INDEX 01 00:49:34
  TRACK 29 AUDIO
    TITLE "5:cjc173_3785"
    INDEX 01 00:49:54
  TRACK 30 AUDIO
    TITLE "0:"
    INDEX 01 00:55:49
  TRACK 31 AUDIO
    TITLE "3:cjc173_3786"
    INDEX 01 00:56:25
  TRACK 32 AUDIO
    TITLE "0:"
    INDEX 01 00:57:42
  TRACK 33 AUDIO
    TITLE "4:cjc173_3787"
    INDEX 01 00:57:63
  TRACK 34 AUDIO
    TITLE "0:"
    INDEX 01 00:59:23
  TRACK 35 AUDIO
    TITLE "5:cjc173_3788"
    INDEX 01 00:59:42
  TRACK 36 AUDIO
    TITLE "0:"
    INDEX 01 01:04:55
  TRACK 37 AUDIO
    TITLE "3:cjc173_3789"
    INDEX 01 01:05:25
  TRACK 38 AUDIO
    TITLE "0:"
    INDEX 01 01:06:21
  TRACK 39 AUDIO
    TITLE "4:cjc173_3790"
    INDEX 01 01:06:43
  TRACK 40 AUDIO
    TITLE "0:"
    INDEX 01 01:08:30
  TRACK 41 AUDIO
    TITLE "5:cjc173_3791"
    INDEX 01 01:08:47
  TRACK 42 AUDIO
    TITLE "0:"
    INDEX 01 01:14:11
  TRACK 43 AUDIO
    TITLE "3:cjc173_3792"
    INDEX 01 01:14:60
  TRACK 44 AUDIO
    TITLE "0:"
    INDEX 01 01:15:63
  TRACK 45 AUDIO
    TITLE "4:cjc173_3793"
    INDEX 01 01:16:12
  TRACK 46 AUDIO
    TITLE "0:"
    INDEX 01 01:19:31
  TRACK 47 AUDIO
    TITLE "5:cjc173_3794"
    INDEX 01 01:19:51
  TRACK 48 AUDIO
    TITLE "0:"
    INDEX 01 01:23:29
  TRACK 49 AUDIO
    TITLE "3:cjc173_3795"
    INDEX 01 01:24:01
  TRACK 50 AUDIO
    TITLE "0:"
    INDEX 01 01:25:05
  TRACK 51 AUDIO
    TITLE "4:cjc173_3796"
    INDEX 01 01:25:26
  TRACK 52 AUDIO
    TITLE "0:"
    INDEX 01 01:26:59
  TRACK 53 AUDIO
    TITLE "5:cjc173_3797"
    INDEX 01 01:27:04
  TRACK 54 AUDIO
    TITLE "0:"
    INDEX 01 01:31:09
  TRACK 55 AUDIO
    TITLE "3:cjc173_3798"
    INDEX 01 01:31:56
  TRACK 56 AUDIO
    TITLE "0:"
    INDEX 01 01:33:14
  TRACK 57 AUDIO
    TITLE "4:cjc173_3799"
    INDEX 01 01:33:35
  TRACK 58 AUDIO
    TITLE "0:"
    INDEX 01 01:34:64
  TRACK 59 AUDIO
    TITLE "5:cjc173_3800"
    INDEX 01 01:35:09
  TRACK 60 AUDIO
    TITLE "0:"
    INDEX 01 01:38:72
